<?xml version="1.0" encoding="UTF-8"?>
<svg id="Calque_2" data-name="Calque 2" xmlns="http://www.w3.org/2000/svg" viewBox="0 0 108.55 111.26">
  <defs>
    <style>
      .cls-1 {
        fill: #fff;
      }
    </style>
  </defs>
  <g id="Calque_1-2" data-name="Calque 1">
    <g>
      <path class="cls-1" d="M81.13,34.21L4.21,111.26h10.81L86.6,39.67c.25-.24.26-.64.02-.89,0,0-.01-.01-.02-.02l-4.54-4.55c-.25-.26-.66-.26-.92-.01,0,0,0,0-.01.01Z"/>
      <path class="cls-1" d="M5.65,55.14L60.64,0h-10.81L.19,49.67c-.25.25-.25.66,0,.91l4.55,4.56c.25.25.66.25.91,0Z"/>
      <path class="cls-1" d="M92.04,45.13L26.03,111.26h10.81l60.68-60.68c.25-.25.25-.66,0-.91l-4.55-4.54c-.23-.26-.63-.28-.88-.06-.02.02-.04.04-.06.06Z"/>
      <path class="cls-1" d="M102.95,56.03l-55.14,55.22h10.81l49.73-49.73c.25-.25.25-.66,0-.91l-4.54-4.54c-.24-.23-.61-.25-.86-.04Z"/>
      <path class="cls-1" d="M11.1,61.49l4.54,4.54c.25.25.66.25.91,0L82.46,0h-10.81L11.1,60.54c-.26.23-.29.64-.05.9.02.02.03.03.05.05Z"/>
      <path class="cls-1" d="M22.01,72.43l4.54,4.54c.24.25.65.26.9.02,0,0,.01-.01.02-.02L104.26,0h-10.81L22.01,71.49c-.26.25-.27.66-.02.92,0,0,.02.02.02.02Z"/>
    </g>
  </g>
</svg>