<?xml version="1.0" encoding="UTF-8"?>
<svg id="Calque_2" data-name="Calque 2" xmlns="http://www.w3.org/2000/svg" viewBox="0 0 355.37 244.04">
  <defs>
    <style>
      .cls-1 {
        fill: #fff;
      }
    </style>
  </defs>
  <g id="Calque_1-2" data-name="Calque 1">
    <g>
      <path class="cls-1" d="M275.97,159.69c3.56,0,5.05,2.39,5.05,4.67s-1.08,3.82-4.02,6.74l-12.31,12.31h15.31l4.69-4.69c3.36-3.36,7.22-8.04,7.22-14.44,0-8.65-6.34-15.47-15.94-15.47h-21.98c-10.08.01-18.25,8.18-18.26,18.26v19.72c.01,10.08,8.18,18.25,18.26,18.27h34.29v-10.89h-34.29c-4.07,0-7.37-3.31-7.37-7.38v-19.72c0-4.07,3.3-7.37,7.37-7.37h21.98Z"/>
      <path class="cls-1" d="M221.03,194.15c-4.08,0-7.38-3.31-7.38-7.38v-27.1h10.72v-10.89h-10.72v-14.94h-10.89v52.97c.01,10.09,8.19,18.26,18.27,18.27h7.45v-10.93h-7.45Z"/>
      <path class="cls-1" d="M148.16,220.07h-10.89v-52.97c.01-10.09,8.18-18.26,18.27-18.27h19.71c10.09.01,18.26,8.19,18.27,18.27v19.71c-.01,10.09-8.18,18.26-18.27,18.27h-16.31v-10.91h16.29c4.08,0,7.38-3.31,7.38-7.38h0v-19.71c0-4.08-3.31-7.38-7.38-7.38h-19.71c-4.08,0-7.38,3.31-7.38,7.38h0l.02,53Z"/>
      <path class="cls-1" d="M50.36,182.36c3.56,0,5.05,2.39,5.05,4.66s-1.08,3.83-4.02,6.74L1.03,244.04h15.42l42.63-42.67c3.35-3.36,7.21-8.03,7.21-14.42,0-8.65-6.32-15.46-15.92-15.46H15.93c-3.25,0-5.89-2.63-5.9-5.89,0-3.25,2.63-5.89,5.89-5.9h46.25v-10.9H15.93c-9.25.47-16.38,8.35-15.91,17.61.44,8.6,7.31,15.47,15.91,15.91l34.43.04Z"/>
      <path class="cls-1" d="M114.52,159.69c3.57,0,5.06,2.39,5.06,4.67s-1.08,3.82-4.03,6.74l-12.3,12.31h15.31l4.69-4.69c3.36-3.36,7.22-8.04,7.22-14.44,0-8.65-6.34-15.47-15.95-15.47h-22.4c-10.08.01-18.25,8.18-18.26,18.26v19.72c.01,10.08,8.18,18.25,18.26,18.27h34.29v-10.89h-34.29c-4.07,0-7.37-3.31-7.37-7.38v-19.72c0-4.07,3.3-7.37,7.37-7.37h22.4Z"/>
      <path class="cls-1" d="M337.1,205.05h-19.72c-10.08-.02-18.25-8.19-18.26-18.27v-19.72c.01-10.08,8.18-18.25,18.26-18.26h19.72c10.08.01,18.25,8.18,18.27,18.26v19.72c-.01,10.09-8.18,18.26-18.27,18.27M317.38,159.65c-4.07,0-7.37,3.3-7.37,7.37v19.72c0,4.07,3.3,7.38,7.37,7.38h19.72c4.08,0,7.38-3.31,7.38-7.38v-19.68c0-4.07-3.31-7.37-7.38-7.37l-19.72-.04Z"/>
      <path class="cls-1" d="M204.13,34.21l-76.92,77.05h10.81l71.58-71.59c.25-.24.26-.64.02-.89,0,0-.01-.01-.02-.02l-4.54-4.55c-.25-.26-.66-.26-.92-.01,0,0,0,0-.01.01Z"/>
      <path class="cls-1" d="M128.64,55.14L183.64,0h-10.81l-49.64,49.67c-.25.25-.25.66,0,.91l4.55,4.56c.25.25.66.25.91,0Z"/>
      <path class="cls-1" d="M215.03,45.13l-66,66.13h10.81l60.68-60.68c.25-.25.25-.66,0-.91l-4.55-4.54c-.23-.26-.63-.28-.88-.06-.02.02-.04.04-.06.06Z"/>
      <path class="cls-1" d="M225.95,56.03l-55.14,55.22h10.81l49.73-49.73c.25-.25.25-.66,0-.91l-4.54-4.54c-.24-.23-.61-.25-.86-.04Z"/>
      <path class="cls-1" d="M134.1,61.49l4.54,4.54c.25.25.66.25.91,0L205.45,0h-10.81l-60.54,60.54c-.26.23-.29.64-.05.9.02.02.03.03.05.05Z"/>
      <path class="cls-1" d="M145.01,72.43l4.54,4.54c.24.25.65.26.9.02,0,0,.01-.01.02-.02L227.26,0h-10.81l-71.44,71.49c-.26.25-.27.66-.02.92,0,0,.02.02.02.02Z"/>
    </g>
  </g>
</svg>