<?xml version="1.0" encoding="UTF-8"?>
<svg id="Calque_2" data-name="Calque 2" xmlns="http://www.w3.org/2000/svg" viewBox="0 0 469.38 112.24">
  <defs>
    <style>
      .cls-1 {
        fill: #fff;
      }
    </style>
  </defs>
  <g id="Calque_1-2" data-name="Calque 1">
    <g>
      <path class="cls-1" d="M388.47,26.33c3.63,0,5.15,2.44,5.15,4.77s-1.13,3.89-4.11,6.86l-12.53,12.54h15.59l4.78-4.79c3.43-3.42,7.36-8.19,7.36-14.71,0-8.86-6.45-15.76-16.24-15.76h-22.4c-10.27.02-18.59,8.34-18.6,18.61v20.09c0,10.28,8.33,18.61,18.61,18.62h34.94v-11.1h-34.94c-4.15,0-7.51-3.37-7.52-7.52v-20.09c.01-4.15,3.37-7.51,7.52-7.52h22.39Z"/>
      <path class="cls-1" d="M332.5,61.45c-4.13,0-7.49-3.33-7.52-7.47v-27.67h10.93v-11.09h-10.93V0h-11.09v53.93c.01,10.27,8.34,18.6,18.61,18.61h7.59v-11.09h-7.59Z"/>
      <path class="cls-1" d="M258.25,87.86h-11.09v-54c0-10.28,8.33-18.61,18.61-18.62h20.06c10.28.01,18.6,8.34,18.61,18.62v20.08c0,10.28-8.33,18.61-18.61,18.62h-16.64v-11.1h16.64c4.13-.03,7.47-3.39,7.47-7.52v-20.08c0-4.13-3.33-7.49-7.47-7.53h-20.08c-4.13.04-7.47,3.4-7.47,7.53l-.03,54Z"/>
      <path class="cls-1" d="M158.6,49.43c3.63,0,5.15,2.44,5.15,4.76s-1.14,3.89-4.11,6.86l-51.3,51.19h15.7l43.43-43.47c3.42-3.42,7.35-8.18,7.35-14.7,0-8.85-6.4-15.74-16.22-15.74h-35.08c-3.32,0-6-2.69-6-6,0-3.32,2.69-6,6-6h47.11v-11.08h-47.11c-9.44,0-17.1,7.65-17.1,17.1s7.65,17.1,17.1,17.1h35.08Z"/>
      <path class="cls-1" d="M223.98,26.33c3.63,0,5.15,2.44,5.15,4.77s-1.13,3.89-4.11,6.86l-12.53,12.54h15.59l4.78-4.79c3.43-3.42,7.36-8.19,7.36-14.71,0-8.86-6.45-15.76-16.24-15.76h-22.8c-10.27.01-18.6,8.34-18.61,18.61v20.09c0,10.28,8.33,18.61,18.61,18.62h34.95v-11.1h-34.95c-4.13-.03-7.47-3.39-7.47-7.52v-20.09c0-4.13,3.34-7.48,7.47-7.52h22.8Z"/>
      <path class="cls-1" d="M450.76,72.57h-20.08c-10.26-.04-18.56-8.36-18.57-18.62v-20.09c.01-10.27,8.34-18.6,18.61-18.61h20.08c10.26.03,18.57,8.35,18.58,18.61v20.09c-.01,10.28-8.34,18.61-18.62,18.62M430.67,26.33c-4.15,0-7.51,3.37-7.52,7.52v20.09c0,4.15,3.37,7.52,7.52,7.52h20.08c4.15,0,7.52-3.37,7.52-7.52v-20.09c0-4.15-3.37-7.51-7.52-7.52h-20.08Z"/>
      <g>
        <path class="cls-1" d="M64.06,27.01L3.31,87.86h8.52l56.56-56.54c.2-.2.2-.52,0-.72l-3.6-3.59c-.2-.2-.52-.2-.72,0Z"/>
        <path class="cls-1" d="M4.46,43.53L47.89,0h-8.52L.15,39.23c-.2.2-.2.52,0,.72l3.59,3.59c.2.2.52.2.72,0Z"/>
        <path class="cls-1" d="M72.69,35.64l-52.09,52.22h8.48l47.96-47.92c.2-.2.2-.52,0-.72l-3.59-3.6c-.19-.21-.52-.21-.72-.02,0,0-.02.02-.03.03Z"/>
        <path class="cls-1" d="M81.3,44.25l-43.51,43.61h8.51l39.3-39.3c.2-.2.2-.52,0-.72l-3.58-3.59c-.2-.2-.52-.2-.72,0Z"/>
        <path class="cls-1" d="M8.76,48.56l3.59,3.59c.2.2.52.2.72,0L65.12,0h-8.52L8.76,47.84c-.2.2-.2.52,0,.72Z"/>
        <path class="cls-1" d="M17.36,57.18l3.59,3.59c.2.2.52.2.72,0L82.36,0h-8.52L17.36,56.46c-.2.2-.2.52,0,.72Z"/>
      </g>
    </g>
  </g>
</svg>